<svg width="1200" height="300" viewBox="0 0 1200 300" fill="none" xmlns="http://www.w3.org/2000/svg">
<rect width="1200" height="300" fill="white"/>
<path d="M544.383 238.731C541.208 244.083 537.24 250.199 531.685 254.787C522.162 263.197 511.051 267.02 497.56 267.02C472.958 267.02 446.77 252.493 446.77 215.029C446.77 185.21 465.816 162.272 496.767 162.272C517.4 162.272 529.304 172.212 535.653 180.622C542.002 189.797 545.97 204.324 545.176 218.087H464.229C464.229 238.731 479.307 251.729 496.767 251.729C504.703 251.729 511.845 249.435 518.194 244.847C522.956 241.024 526.924 235.672 529.304 231.085L544.383 238.731ZM526.924 203.56C523.749 188.268 511.845 177.564 496.767 177.564C481.688 177.564 468.99 188.268 466.61 203.56H526.924Z" fill="#67579C"/>
<path d="M384.859 164.566H403.112V175.27C405.493 172.212 412.636 162.272 426.127 162.272C431.682 162.272 437.237 164.566 441.999 166.095L433.269 181.387C429.301 178.329 425.333 177.564 422.952 177.564C415.81 177.564 411.048 180.622 408.668 183.681C405.493 187.504 403.112 194.385 403.112 210.441V263.197H384.859V164.566V164.566Z" fill="#67579C"/>
<path d="M771.347 179.859V263.963H753.094V179.859H742.777V163.803H753.888V127.867H772.141V163.803H790.394V179.859H771.347Z" fill="#67579C"/>
<path d="M710.245 114.107C717.387 114.107 722.942 119.459 722.942 126.341C722.942 133.222 717.387 138.574 710.245 138.574C703.102 138.574 697.547 133.222 697.547 126.341C697.547 119.459 703.102 114.107 710.245 114.107ZM718.974 164.57V264.73H700.721V164.57H718.974Z" fill="#67579C"/>
<path d="M355.5 139.333C350.738 134.745 342.802 127.864 334.073 124.806C325.343 120.983 315.026 118.689 305.503 118.689C266.616 118.689 238.84 148.508 238.84 185.207C238.84 228.789 275.346 250.962 306.297 250.962C317.407 250.962 328.517 247.903 337.247 243.316C346.77 238.728 353.119 232.612 356.294 229.553V251.726C337.247 264.724 318.994 267.018 306.297 267.018C255.506 267.018 219 231.082 219 184.443C219 136.274 256.299 101.104 306.297 101.104C316.613 101.104 335.66 102.633 355.5 117.16V139.333Z" fill="#67579C"/>
<path d="M651.53 88.8789H669.783V263.968H651.53V250.206C645.975 257.851 634.071 267.026 615.818 267.026C589.629 267.026 565.027 249.441 565.027 214.27C565.027 179.864 588.835 162.279 615.818 162.279C635.658 162.279 646.769 172.983 651.53 179.1V88.8789ZM584.074 214.27C584.074 235.679 596.772 251.735 618.199 251.735C640.42 251.735 652.324 234.149 652.324 214.27C652.324 188.275 634.071 177.57 618.199 177.57C600.74 176.806 584.074 189.804 584.074 214.27Z" fill="#67579C"/>
<path d="M900.729 30C843.59 30 815.813 78.1687 823.749 129.396C824.543 136.277 830.892 153.862 836.447 166.86C845.97 186.739 857.874 206.618 867.398 222.675L938.028 104.929H861.842V91.1665H867.398H954.694H959.456V96.5186L954.694 104.164L876.127 236.437C886.444 252.493 895.174 262.433 897.555 262.433C904.697 262.433 967.392 188.268 979.296 127.866C988.819 76.6395 957.869 30 900.729 30Z" fill="#59C2A4"/>
</svg>