<?xml version="1.0" encoding="utf-8"?>
<!-- Generator: Adobe Illustrator 22.1.0, SVG Export Plug-In . SVG Version: 6.00 Build 0)  -->
<svg version="1.2" baseProfile="tiny" id="Слой_1"
	 xmlns="http://www.w3.org/2000/svg" xmlns:xlink="http://www.w3.org/1999/xlink" x="0px" y="0px" viewBox="0 0 800 248.6"
	 xml:space="preserve">
<g>
	<polygon fill="#FFCC00" points="800,248.6 51.6,248.6 104.6,172.1 800,172.1 	"/>
	<path fill="#003764" d="M240.5,119.1c0,3.1-0.9,5.6-2.7,7.4c-1.8,1.9-4.2,2.8-7.2,2.8c-3,0-5.4-0.9-7.2-2.8
		c-1.8-1.9-2.7-4.3-2.7-7.4c0-3.1,0.9-5.5,2.8-7.4c1.8-1.9,4.3-2.8,7.3-2.8c3,0,5.3,0.9,7.1,2.8C239.6,113.6,240.5,116,240.5,119.1z
		 M235.2,119c0-1.9-0.4-3.4-1.3-4.5c-0.8-1.1-2-1.6-3.4-1.6c-1.4,0-2.5,0.5-3.4,1.6c-0.8,1.1-1.2,2.6-1.2,4.5c0,2,0.4,3.5,1.2,4.6
		s2,1.6,3.4,1.6c1.5,0,2.6-0.5,3.4-1.6C234.8,122.5,235.2,121,235.2,119z M266.9,128.7h-5.3v-8.1h-7.4v8.1h-5.3v-19.2h5.3v7h7.4v-7
		h5.3V128.7z M293.7,128.7h-5.3v-15.2h-5.1l-0.2,6.8c0,0.7,0,1.3-0.1,1.8c0,0.4-0.1,1-0.2,1.7c-0.1,0.7-0.2,1.3-0.4,1.8
		c-0.1,0.4-0.4,0.9-0.7,1.5c-0.3,0.5-0.7,0.9-1.1,1.2c-0.4,0.3-0.9,0.5-1.6,0.7c-0.6,0.2-1.4,0.3-2.2,0.3c-1.3,0-2.2-0.1-2.9-0.4
		v-4.2c0.6,0.1,1.1,0.2,1.5,0.2c1.5,0,2.3-1.3,2.4-4l0.3-11.4h15.4V128.7z M320.7,128.7h-5.4c-0.2-0.5-0.3-1.1-0.4-1.9
		c-1.6,1.6-3.7,2.4-6.2,2.4c-2.1,0-3.8-0.5-5-1.5c-1.2-1-1.8-2.5-1.8-4.3c0-0.8,0.1-1.5,0.3-2.2c0.2-0.6,0.6-1.1,1-1.6
		c0.5-0.4,1-0.8,1.4-1c0.4-0.3,1.1-0.5,1.8-0.7c0.8-0.2,1.4-0.3,1.9-0.4c0.5-0.1,1.1-0.2,2-0.3c1.9-0.2,3.1-0.5,3.7-0.8
		c0.6-0.3,1-0.8,1-1.5c0-1.7-1.2-2.6-3.5-2.6c-1.2,0-2.1,0.2-2.7,0.7c-0.6,0.4-0.9,1.2-1.1,2.3h-5c0.3-4.3,3.3-6.5,8.9-6.5
		c5.6,0,8.4,2.1,8.4,6.3v8.3C320,125.9,320.3,127.6,320.7,128.7z M314.9,119.3c-0.6,0.4-1.9,0.7-3.7,1c-1.6,0.2-2.6,0.6-3.1,0.9
		c-0.5,0.5-0.8,1.1-0.8,1.9c0,0.8,0.2,1.4,0.7,1.9c0.5,0.4,1.2,0.7,2.2,0.7c1.4,0,2.5-0.4,3.4-1.1c0.9-0.8,1.3-1.8,1.3-3.2V119.3z
		 M342.1,102.1h2.1c0,3.6-2,5.4-6.1,5.4c-4.1,0-6.1-1.8-6.1-5.4h2.1c0.3,1.6,1.7,2.5,4,2.5C340.5,104.6,341.8,103.8,342.1,102.1z
		 M347.1,128.7H342v-13l-6.9,13h-6v-19.2h5.1v13l6.9-13h6V128.7z M374.1,128.7h-5.3v-8.1h-7.4v8.1h-5.3v-19.2h5.3v7h7.4v-7h5.3
		V128.7z M418,128.7h-6.4l-5.6-8.3l-2.3,2.4v5.9h-5.2v-19.2h5.2v7.6l7-7.6h6.2l-7.5,7.5L418,128.7z M429.6,109.5v2.4
		c1.4-1.9,3.4-2.9,6-2.9c2.6,0,4.7,0.9,6.2,2.8c1.6,1.9,2.3,4.3,2.3,7.5c0,3-0.8,5.4-2.3,7.3c-1.5,1.8-3.5,2.7-6,2.7
		c-2.6,0-4.6-1-5.9-2.9v9.2h-5.3v-26.1H429.6z M434.2,113.2c-1.4,0-2.6,0.5-3.4,1.6c-0.8,1-1.2,2.5-1.2,4.4c0,1.9,0.4,3.3,1.2,4.4
		c0.8,1,2,1.6,3.4,1.6c1.4,0,2.5-0.5,3.3-1.6c0.8-1,1.2-2.5,1.2-4.3c0-1.9-0.4-3.3-1.2-4.4C436.8,113.7,435.7,113.2,434.2,113.2z
		 M470.3,122.7c-0.6,2.1-1.7,3.7-3.3,4.8c-1.6,1.1-3.5,1.7-5.7,1.7c-3,0-5.3-0.9-7.2-2.8c-1.8-1.8-2.7-4.3-2.7-7.3
		c0-3,0.9-5.4,2.7-7.4c1.8-1.9,4.1-2.9,6.9-2.9c2.9,0,5.2,1,6.9,3c1.7,2,2.6,4.6,2.6,8v0.5h-13.8c0,1.7,0.4,2.9,1.2,3.8
		c0.8,0.9,1.9,1.3,3.3,1.3c1.9,0,3.2-0.9,3.9-2.8H470.3z M465.3,117.1c-0.1-1.3-0.5-2.3-1.2-3.1c-0.7-0.8-1.7-1.2-2.9-1.2
		c-1.2,0-2.1,0.4-2.9,1.2c-0.8,0.8-1.2,1.8-1.4,3.2H465.3z M498.7,134.4h-5v-5.7h-12.7v5.7h-5v-9.7h2.3c0.6-1.2,1.2-2.9,1.7-5.2
		c0.5-2.3,0.7-4.5,0.7-6.6v-3.4h15.4v15.2h2.5V134.4z M491,124.6v-11.3h-5.2v0.5c0,1.9-0.2,3.8-0.7,5.9c-0.4,2.1-0.9,3.7-1.5,4.8
		H491z M524.2,128.7h-5.1v-13l-6.9,13h-6v-19.2h5.1v13l6.9-13h6V128.7z M549.4,113.5h-6.3v15.2h-5.3v-15.2h-6.3v-4.1h17.9V113.5z
		 M575.3,109.5h5.3v19.2h-5.3V109.5z M572.9,122.4c0,2.1-0.7,3.6-2,4.7c-1.3,1.1-3.1,1.6-5.3,1.6h-9.2v-19.2h5.2v6.6h4.2
		c2,0,3.7,0.5,5,1.6C572.2,118.8,572.9,120.3,572.9,122.4z M561.6,119.6v5.4h2.7c2.1,0,3.2-0.9,3.2-2.7c0-0.9-0.3-1.6-0.9-2
		c-0.6-0.5-1.4-0.7-2.3-0.7H561.6z M622.4,128.7h-5.3v-8.1h-7.4v8.1h-5.3v-19.2h5.3v7h7.4v-7h5.3V128.7z M649.3,128.7h-5.4
		c-0.2-0.5-0.3-1.1-0.4-1.9c-1.6,1.6-3.7,2.4-6.2,2.4c-2.1,0-3.8-0.5-5-1.5c-1.2-1-1.8-2.5-1.8-4.3c0-0.8,0.1-1.5,0.3-2.2
		c0.2-0.6,0.6-1.1,1-1.6c0.5-0.4,1-0.8,1.4-1c0.4-0.3,1.1-0.5,1.8-0.7c0.8-0.2,1.4-0.3,1.9-0.4c0.5-0.1,1.1-0.2,2-0.3
		c1.9-0.2,3.1-0.5,3.7-0.8c0.6-0.3,1-0.8,1-1.5c0-1.7-1.2-2.6-3.5-2.6c-1.2,0-2.1,0.2-2.7,0.7c-0.6,0.4-0.9,1.2-1.1,2.3h-5
		c0.3-4.3,3.3-6.5,8.9-6.5c5.6,0,8.4,2.1,8.4,6.3v8.3C648.6,125.9,648.9,127.6,649.3,128.7z M643.5,119.3c-0.6,0.4-1.9,0.7-3.7,1
		c-1.6,0.2-2.6,0.6-3.1,0.9c-0.6,0.5-0.8,1.1-0.8,1.9c0,0.8,0.2,1.4,0.7,1.9c0.5,0.4,1.2,0.7,2.2,0.7c1.4,0,2.5-0.4,3.4-1.1
		c0.9-0.8,1.3-1.8,1.3-3.2V119.3z M692.6,128.7h-6.4l-5.6-8.3l-2.3,2.4v5.9h-5.2v-19.2h5.2v7.6l7-7.6h6.2l-7.5,7.5L692.6,128.7z
		 M717.1,128.7h-5.4c-0.2-0.5-0.3-1.1-0.4-1.9c-1.6,1.6-3.7,2.4-6.2,2.4c-2.1,0-3.8-0.5-5-1.5c-1.2-1-1.8-2.5-1.8-4.3
		c0-0.8,0.1-1.5,0.3-2.2c0.2-0.6,0.6-1.1,1-1.6c0.5-0.4,1-0.8,1.4-1c0.4-0.3,1.1-0.5,1.8-0.7c0.8-0.2,1.4-0.3,1.9-0.4
		c0.5-0.1,1.1-0.2,2-0.3c1.9-0.2,3.1-0.5,3.7-0.8c0.6-0.3,1-0.8,1-1.5c0-1.7-1.2-2.6-3.5-2.6c-1.2,0-2.1,0.2-2.7,0.7
		c-0.6,0.4-0.9,1.2-1.1,2.3h-5c0.3-4.3,3.3-6.5,8.9-6.5c5.6,0,8.4,2.1,8.4,6.3v8.3C716.5,125.9,716.7,127.6,717.1,128.7z
		 M711.4,119.3c-0.6,0.4-1.9,0.7-3.7,1c-1.6,0.2-2.6,0.6-3.1,0.9c-0.5,0.5-0.8,1.1-0.8,1.9c0,0.8,0.2,1.4,0.7,1.9
		c0.5,0.4,1.2,0.7,2.2,0.7c1.4,0,2.5-0.4,3.4-1.1c0.9-0.8,1.3-1.8,1.3-3.2V119.3z M730.5,109.5v2.4c1.4-1.9,3.4-2.9,6-2.9
		c2.6,0,4.7,0.9,6.2,2.8c1.6,1.9,2.3,4.3,2.3,7.5c0,3-0.8,5.4-2.3,7.3c-1.5,1.8-3.5,2.7-6,2.7c-2.6,0-4.6-1-5.9-2.9v9.2h-5.3v-26.1
		H730.5z M735.2,113.2c-1.4,0-2.6,0.5-3.4,1.6c-0.8,1-1.2,2.5-1.2,4.4c0,1.9,0.4,3.3,1.2,4.4c0.8,1,2,1.6,3.4,1.6
		c1.4,0,2.5-0.5,3.3-1.6c0.8-1,1.2-2.5,1.2-4.3c0-1.9-0.4-3.3-1.2-4.4C737.7,113.7,736.6,113.2,735.2,113.2z M768.8,113.5h-6.3v15.2
		h-5.3v-15.2h-6.3v-4.1h17.9V113.5z M793.5,109.5l-7.1,19.2c-0.4,1-0.6,1.6-0.8,2c-0.1,0.4-0.4,0.9-0.7,1.6
		c-0.3,0.7-0.6,1.2-0.9,1.5c-0.3,0.3-0.7,0.6-1.2,0.9c-0.5,0.3-1,0.6-1.6,0.7c-0.6,0.1-1.3,0.2-2.1,0.2c-0.6,0-1.8,0-3.5,0v-4.4h2.6
		c0.9,0,1.5-0.2,2-0.7c0.5-0.4,0.7-1.1,0.7-1.9c0-0.2,0-0.4-0.1-0.7l-7-18.4h5.7l4.4,13.1l4.3-13.1H793.5z"/>
	<path fill="#003764" d="M224.8,91.3V12.7h15.9l23,32.8l23-32.8h15.9v78.6h-14.3V33.2L263.6,68L239,33.2v58.1L224.8,91.3L224.8,91.3
		L224.8,91.3z"/>
	<path fill="#003764" d="M314.5,12.7h17.3l21,31.9l21-31.9h17.3L360,57.6v33.7h-14.3V57.6L314.5,12.7z"/>
	<path fill="#0055B8" d="M402.2,68.9c-1.5-4.8-2.2-10.5-2.2-16.9c0-6.4,0.7-12.1,2.2-16.9c1.5-4.8,3.5-8.8,5.8-11.7
		c2.4-2.9,5.3-5.3,8.6-7c3.4-1.9,6.7-3.1,9.9-3.6c3.2-0.6,6.7-0.9,10.4-0.9c8.1,0,16.1,1.6,24.1,4.6v13.3
		c-7.6-3.4-15.1-5.2-22.8-5.2c-3.6,0-6.6,0.3-9.1,0.9c-2.5,0.6-5,1.9-7.4,3.6c-2.5,1.8-4.2,4.6-5.6,8.5c-1.3,3.9-1.9,8.7-1.9,14.5
		c0,5.8,0.6,10.7,1.9,14.5c1.2,3.8,3.1,6.6,5.6,8.5c2.4,1.8,4.9,3,7.4,3.6c2.5,0.6,5.6,0.9,9.1,0.9c7.6,0,15.3-1.7,22.8-5.2v13.2
		c-7.9,3.1-16,4.7-24.1,4.7c-3.7,0-7.2-0.3-10.4-0.9c-3.2-0.6-6.5-1.8-9.9-3.6c-3.4-1.9-6.3-4.2-8.6-7
		C405.6,77.7,403.7,73.8,402.2,68.9z"/>
	<path fill="#0055B8" d="M477.8,91.3V12.7h30.6c9.3,0,16.6,2.2,21.7,6.5c5.2,4.3,7.8,10.6,7.8,18.7c0,12-5.8,19.7-17.4,23.2
		l20.9,30.1H524l-18.9-27.7h-12.8v27.7H477.8z M492.2,50.6H508c4.8,0,8.6-0.8,11.4-2.6c2.7-1.7,4.1-4.9,4.1-9.7
		c0-4.8-1.4-8.1-4.1-9.8c-2.7-1.7-6.6-2.5-11.4-2.5h-15.9V50.6z"/>
	<path fill="#0055B8" d="M555.6,91.3V12.7h52.9v12.7H570v19.9h33.4v13.3H570v19.9h38.5v12.7h-52.9V91.3z"/>
	<path fill="#0055B8" d="M625.7,91.3V12.7h27.5c12.3,0,21.6,3.3,28,10c6.3,6.7,9.6,16.5,9.6,29.3c0,12.8-3.2,22.6-9.5,29.2
		c-6.3,6.7-15.7,10-28,10L625.7,91.3L625.7,91.3L625.7,91.3z M639.9,78.6H653c8.3,0,14.2-2.1,17.8-6.2c3.6-4.1,5.5-10.9,5.5-20.3
		c0-9.5-1.8-16.3-5.5-20.4c-3.6-4.1-9.6-6.2-17.8-6.2h-13.1V78.6z"/>
	<path fill="#0055B8" d="M708.2,91.3V12.7h14.3v78.6H708.2z"/>
	<path fill="#0055B8" d="M734.2,26.9V12.7h65.1v14.2h-25.5v64.4h-14.3V26.9H734.2z"/>
	<path fill="#003764" d="M134.7,6.7C131.9,3,125.9,0,121.3,0H9C4.4,0,0.6,3.7,0.6,8.3v13.2h144.9L134.7,6.7z"/>
	<path fill="#0055B8" d="M173.7,59.8L156,35.7H0.6v89.1c0,4.6,3.8,8.3,8.4,8.3h112.3c4.6,0,10.6-3,13.4-6.7l39-53.1
		C176.4,69.6,176.4,63.5,173.7,59.8z M30,114.9h-6.6c-3.7,0-6.6-2.9-6.6-6.6c0-3.6,3-6.6,6.6-6.6H30c3.7,0,6.6,2.9,6.6,6.6
		C36.7,111.9,33.7,114.9,30,114.9z M81.6,114.9H53.5c-3.7,0-6.6-2.9-6.6-6.6c0-3.6,3-6.6,6.6-6.6h28.1c3.7,0,6.6,2.9,6.6,6.6
		C88.3,111.9,85.3,114.9,81.6,114.9z M83,82.1H23.4c-3.7,0-6.6-2.9-6.6-6.6c0-3.6,3-6.6,6.6-6.6H83c3.7,0,6.6,2.9,6.6,6.6
		C89.6,79.2,86.7,82.1,83,82.1z"/>
	<g>
		<path d="M226.1,221.6l9.5-14.6l-8.6-13.3h6.6l5.6,9l5.5-9h6.5l-8.7,13.6l9.5,14.4h-6.8l-6.2-9.7l-6.2,9.7H226.1z"/>
		<path d="M253.1,211.2c0-1.8,0.4-3.5,1.3-5.2c0.9-1.7,2.1-2.9,3.7-3.8c1.6-0.9,3.4-1.3,5.4-1.3c3.1,0,5.6,1,7.5,3
			c2,2,2.9,4.5,2.9,7.5c0,3.1-1,5.6-3,7.6c-2,2-4.5,3-7.5,3c-1.9,0-3.6-0.4-5.3-1.3c-1.7-0.8-3-2.1-3.8-3.7
			C253.6,215.5,253.1,213.5,253.1,211.2z M258.6,211.5c0,2,0.5,3.5,1.4,4.6s2.1,1.6,3.5,1.6s2.6-0.5,3.5-1.6
			c0.9-1.1,1.4-2.6,1.4-4.6c0-2-0.5-3.5-1.4-4.6c-0.9-1.1-2.1-1.6-3.5-1.6s-2.6,0.5-3.5,1.6S258.6,209.5,258.6,211.5z"/>
		<path d="M278.7,201.4h17.9v20.2h-5.3v-15.9H284v9.1c0,2.3-0.3,3.9-0.8,4.9c-0.5,0.9-1.1,1.5-1.8,1.8c-0.6,0.3-1.7,0.4-3.1,0.4
			c-0.9,0-2-0.1-3.4-0.3v-3.9c0.1,0,0.4,0,0.9,0c0.6,0,1,0.1,1.3,0.1c0.7,0,1.2-0.2,1.3-0.7c0.2-0.5,0.2-1.8,0.2-4V201.4z"/>
		<path d="M318.7,221.6h-15.3v5.3h-4.3v-9.7h2.2c0.9-1,1.7-2.6,2.3-4.8s1-5.9,1.1-11.1h16.3v15.8h2.2v9.7h-4.4V221.6z M315.6,217.2
			l0-11.4h-6.5c-0.2,5.6-1.1,9.4-2.7,11.4H315.6z"/>
		<path d="M348.2,201.4h5.4v7.4h7.7v-7.4h5.4v20.2h-5.4v-8.5h-7.7v8.5h-5.4V201.4z"/>
		<path d="M376,207.5l-4.9-0.9c0.5-2,1.5-3.4,2.8-4.3s3.3-1.4,5.9-1.4c2.4,0,4.2,0.3,5.3,0.8c1.2,0.6,2,1.3,2.5,2.2
			c0.5,0.9,0.7,2.5,0.7,4.8l-0.1,6.2c0,1.8,0.1,3.1,0.3,3.9c0.2,0.8,0.5,1.7,1,2.7h-5.3c-0.1-0.4-0.3-0.9-0.5-1.6
			c-0.1-0.3-0.2-0.5-0.2-0.6c-0.9,0.9-1.9,1.6-2.9,2c-1,0.4-2.2,0.7-3.3,0.7c-2.1,0-3.7-0.6-4.9-1.7c-1.2-1.1-1.8-2.6-1.8-4.3
			c0-1.1,0.3-2.2,0.8-3.1c0.5-0.9,1.3-1.6,2.3-2.1c1-0.5,2.4-0.9,4.3-1.2c2.5-0.5,4.2-0.9,5.2-1.3v-0.5c0-1-0.3-1.8-0.8-2.2
			c-0.5-0.4-1.5-0.7-2.9-0.7c-1,0-1.7,0.2-2.2,0.6C376.7,205.9,376.3,206.6,376,207.5z M383.1,211.9c-0.7,0.2-1.8,0.5-3.3,0.8
			s-2.5,0.6-2.9,0.9c-0.7,0.5-1,1.1-1,1.9c0,0.7,0.3,1.4,0.8,1.9c0.6,0.5,1.3,0.8,2.1,0.8c1,0,1.9-0.3,2.8-1
			c0.6-0.5,1.1-1.1,1.3-1.8c0.1-0.5,0.2-1.3,0.2-2.6V211.9z"/>
		<path d="M404.6,201.4h11.7c2.4,0,4.2,0.4,5.4,1.3c1.2,0.9,1.8,2.2,1.8,4c0,1.1-0.3,2.1-1,3c-0.7,0.8-1.5,1.4-2.5,1.7
			c1.4,0.3,2.4,1,3.1,1.9c0.7,0.9,1,2,1,3.1c0,1.6-0.6,2.9-1.7,3.8c-1.2,1-2.9,1.5-5.1,1.5h-12.7V201.4z M409.9,209.8h3.4
			c1.7,0,2.9-0.2,3.6-0.6c0.7-0.4,1.1-1.1,1.1-2c0-0.9-0.3-1.5-1-1.8c-0.7-0.4-1.9-0.5-3.7-0.5h-3.4V209.8z M409.9,218.2h4.2
			c1.5,0,2.6-0.2,3.3-0.6c0.7-0.4,1-1,1-2c0-1-0.4-1.7-1.2-2c-0.8-0.4-2.4-0.6-4.7-0.6h-2.7V218.2z"/>
		<path d="M428.5,201.4h5.4v8.4h5.4c2.1,0,3.7,0.1,4.8,0.4c1.1,0.3,2.1,0.9,2.8,2c0.8,1,1.2,2.2,1.2,3.5c0,2-0.7,3.4-2,4.4
			c-1.3,1-3.4,1.5-6.1,1.5h-11.4V201.4z M433.9,218.2h5c1.3,0,2.2-0.2,2.8-0.6s0.9-1.1,0.9-2c0-1-0.4-1.6-1.1-2
			c-0.8-0.4-2.1-0.5-4.1-0.5h-3.5V218.2z M451.1,201.4h5.4v20.2h-5.4V201.4z"/>
		<path d="M461.6,201.4h18v20.2h-5.4v-15.9h-7.3v15.9h-5.4V201.4z"/>
		<path d="M486.8,201.4h17.9v20.2h-5.3v-15.9h-7.3v9.1c0,2.3-0.3,3.9-0.8,4.9c-0.5,0.9-1.1,1.5-1.8,1.8c-0.6,0.3-1.7,0.4-3.1,0.4
			c-0.9,0-2-0.1-3.4-0.3v-3.9c0.1,0,0.4,0,0.9,0c0.6,0,1,0.1,1.3,0.1c0.7,0,1.2-0.2,1.3-0.7c0.2-0.5,0.2-1.8,0.2-4V201.4z"/>
		<path d="M514.1,207.5l-4.9-0.9c0.5-2,1.5-3.4,2.8-4.3s3.3-1.4,5.9-1.4c2.4,0,4.2,0.3,5.3,0.8c1.2,0.6,2,1.3,2.5,2.2
			c0.5,0.9,0.7,2.5,0.7,4.8l-0.1,6.2c0,1.8,0.1,3.1,0.3,3.9c0.2,0.8,0.5,1.7,1,2.7h-5.3c-0.1-0.4-0.3-0.9-0.5-1.6
			c-0.1-0.3-0.2-0.5-0.2-0.6c-0.9,0.9-1.9,1.6-2.9,2c-1,0.4-2.2,0.7-3.3,0.7c-2.1,0-3.7-0.6-4.9-1.7c-1.2-1.1-1.8-2.6-1.8-4.3
			c0-1.1,0.3-2.2,0.8-3.1c0.5-0.9,1.3-1.6,2.3-2.1c1-0.5,2.4-0.9,4.3-1.2c2.5-0.5,4.2-0.9,5.2-1.3v-0.5c0-1-0.3-1.8-0.8-2.2
			c-0.5-0.4-1.5-0.7-2.9-0.7c-1,0-1.7,0.2-2.2,0.6C514.9,205.9,514.4,206.6,514.1,207.5z M521.3,211.9c-0.7,0.2-1.8,0.5-3.3,0.8
			s-2.5,0.6-2.9,0.9c-0.7,0.5-1,1.1-1,1.9c0,0.7,0.3,1.4,0.8,1.9c0.6,0.5,1.3,0.8,2.1,0.8c1,0,1.9-0.3,2.8-1
			c0.6-0.5,1.1-1.1,1.3-1.8c0.1-0.5,0.2-1.3,0.2-2.6V211.9z"/>
		<path d="M529.4,201.4h18.3v4.3h-6.5v15.9h-5.4v-15.9h-6.5V201.4z"/>
		<path d="M549.3,201.4h5.7l4.8,14.4l4.7-14.4h5.5l-7.1,19.5l-1.3,3.5c-0.5,1.2-0.9,2.1-1.3,2.7c-0.4,0.6-0.9,1.1-1.5,1.5
			c-0.6,0.4-1.2,0.7-2,0.9c-0.8,0.2-1.7,0.3-2.7,0.3c-1,0-2-0.1-3-0.3l-0.5-4.2c0.8,0.2,1.6,0.2,2.3,0.2c1.2,0,2.2-0.4,2.8-1.1
			c0.6-0.7,1.1-1.7,1.4-2.8L549.3,201.4z"/>
		<path d="M581.6,213.5v-4h39v4H581.6z"/>
		<path d="M642.1,193.6c2.7,0,4.8,1,6.3,2.9c1.8,2.3,2.7,6.1,2.7,11.4c0,5.3-0.9,9.1-2.7,11.4c-1.5,1.9-3.6,2.9-6.3,2.9
			c-2.7,0-4.9-1-6.6-3.1c-1.7-2.1-2.5-5.8-2.5-11.2c0-5.3,0.9-9,2.7-11.3C637.3,194.5,639.4,193.6,642.1,193.6z M642.1,198
			c-0.6,0-1.2,0.2-1.7,0.6c-0.5,0.4-0.9,1.2-1.2,2.2c-0.4,1.4-0.6,3.7-0.6,7s0.2,5.5,0.5,6.8c0.3,1.2,0.7,2,1.2,2.4
			c0.5,0.4,1.1,0.6,1.7,0.6s1.2-0.2,1.7-0.6c0.5-0.4,0.9-1.2,1.2-2.2c0.4-1.4,0.6-3.7,0.6-7s-0.2-5.5-0.5-6.8
			c-0.3-1.2-0.7-2-1.2-2.5C643.4,198.2,642.8,198,642.1,198z"/>
		<path d="M683.5,221.6h-15.3v5.3h-4.3v-9.7h2.2c0.9-1,1.7-2.6,2.3-4.8s1-5.9,1.1-11.1h16.3v15.8h2.2v9.7h-4.4V221.6z M680.4,217.2
			l0-11.4h-6.5c-0.2,5.6-1.1,9.4-2.7,11.4H680.4z"/>
		<path d="M691.3,201.4h5.4v7.4h7.7v-7.4h5.4v20.2h-5.4v-8.5h-7.7v8.5h-5.4V201.4z"/>
		<path d="M726.8,215.1l5.3,0.9c-0.7,2-1.8,3.4-3.2,4.5c-1.5,1-3.3,1.5-5.6,1.5c-3.5,0-6.1-1.1-7.8-3.4c-1.3-1.8-2-4.2-2-7
			c0-3.4,0.9-6,2.6-7.9c1.8-1.9,4-2.8,6.6-2.8c3,0,5.4,1,7.1,3c1.7,2,2.6,5,2.5,9.1H719c0,1.6,0.5,2.8,1.3,3.7
			c0.8,0.9,1.9,1.3,3.1,1.3c0.8,0,1.5-0.2,2.1-0.7S726.5,216.2,726.8,215.1z M727.1,209.7c0-1.5-0.4-2.7-1.2-3.5
			c-0.8-0.8-1.7-1.2-2.8-1.2c-1.2,0-2.1,0.4-2.9,1.3s-1.1,2-1.1,3.5H727.1z"/>
		<path d="M736.6,201.4h5.1v12.7l8.2-12.7h5.3v20.2h-5.1v-12.9l-8.3,12.9h-5.1V201.4z M749.4,193.2h2.6c-0.2,1.7-0.8,3.1-1.8,4.1
			c-1.1,1-2.4,1.5-4.1,1.5s-3.1-0.5-4.1-1.5c-1.1-1-1.7-2.3-1.8-4.1h2.6c0.1,0.9,0.4,1.6,1,2c0.5,0.5,1.3,0.7,2.4,0.7
			s1.8-0.2,2.4-0.7C749,194.7,749.4,194.1,749.4,193.2z"/>
	</g>
</g>
</svg>
