<svg width="136" height="81" viewBox="0 0 136 81" fill="none" xmlns="http://www.w3.org/2000/svg">
<path d="M58.0989 2.34019C57.2762 2.64592 56.4146 2.82379 55.5419 2.82379C53.1406 2.82379 51.0783 1.71762 49.6609 0C49.6219 0 49.5886 0 49.5552 0C49.4941 0 49.4385 0.00556102 49.3774 0.0111197C47.871 1.90106 45.5586 3.14619 43.1795 3.14619C42.4124 3.14619 41.6786 3.02947 40.9894 2.81824C40.5336 3.34075 40.2834 3.90773 40.2945 4.50251C40.339 6.88161 44.6859 15.0306 49.8499 14.925C55.0138 14.8138 59.0716 8.2935 58.9883 4.1134C58.9771 3.47416 58.6548 2.87382 58.0989 2.34019Z" fill="#FFCE00"/>
<path d="M18.0878 32.468C20.8838 29.1884 24.1134 23.5241 23.7743 15.0861H17.3207C17.254 19.2051 16.298 29.9999 8.24348 31.3118L7.38743 31.384L7.3763 30.8282V15.0806H0V53.602H7.3763V37.2707H8.27127C23.652 37.2818 23.3407 53.602 23.3407 53.602H30.1112C30.1112 40.756 22.9905 34.8749 18.0878 32.468Z" fill="black"/>
<path fill-rule="evenodd" clip-rule="evenodd" d="M57.966 29.263C56.4015 26.5277 52.881 24.7971 49.194 24.7971C41.1451 24.7416 34.8305 29.7165 34.8305 39.2162C34.8305 48.716 40.8671 53.9189 49.0272 53.8633C52.1012 53.8077 56.4036 52.2402 57.9711 48.9995L58.3046 53.0239H64.7304V25.4697H58.1879L57.966 29.263ZM41.6509 39.2162C41.6509 44.4747 45.2863 47.6043 49.811 47.6043C60.5448 47.6043 60.5448 30.8894 49.811 30.8894C45.2863 30.8894 41.6509 33.9578 41.6509 39.2162Z" fill="black"/>
<path fill-rule="evenodd" clip-rule="evenodd" d="M114.647 53.8633C117.721 53.8077 122.023 52.2402 123.591 48.9995L123.93 53.0239H130.356V25.4697H123.813L123.591 29.2718C122.029 26.5314 118.505 24.7971 114.814 24.7971C106.765 24.7416 100.45 29.7165 100.45 39.2162C100.45 48.716 106.487 53.9189 114.647 53.8633ZM115.431 30.8894C126.165 30.8894 126.165 47.6043 115.431 47.6043C110.906 47.6043 107.271 44.4747 107.271 39.2162C107.271 33.9578 110.906 30.8894 115.431 30.8894Z" fill="black"/>
<path d="M88.8271 35.1139V25.3974L88.8383 25.3919H95.6587V53.4909H88.8383V44.836C86.3758 48.0212 83.313 48.9717 80.2279 48.9717C77.1429 48.9717 74.7415 48.149 72.9572 46.6537C72.179 46.0034 71.5231 45.214 70.9728 44.3135C70.9382 44.2542 70.903 44.1953 70.8679 44.1364C70.7845 43.9966 70.7008 43.8563 70.6226 43.7077C70.478 43.4353 70.3502 43.1684 70.239 42.9016C69.6776 41.5565 69.4997 40.2668 69.4997 39.1829C69.4997 38.8105 69.5164 38.4547 69.5497 38.1379V38.1045L69.9166 36.2979L69.9277 36.2479L72.1234 25.3586L72.3068 24.7137H79.1718L78.0545 30.5726L77.254 35.0028L77.1595 35.5364L77.0317 36.2479C77.0188 36.3319 77.0059 36.4176 76.9941 36.5063C76.9855 36.5704 76.9775 36.6361 76.9705 36.7037C76.7982 38.2713 76.8872 40.5281 78.4658 41.7343C79.0773 42.1234 79.7777 42.3847 80.5447 42.5237C80.6059 42.5347 80.6615 42.5458 80.7282 42.5514L80.706 42.5625C81.1229 42.6292 81.5564 42.6626 82.0067 42.6626C86.0311 42.6626 88.8271 39.2496 88.8271 35.1139Z" fill="black"/>
<path d="M126.158 63.8125H92.4169C87.6531 63.8125 83.7954 67.3033 83.7954 71.6057V72.3561C83.7954 76.6641 87.6587 80.1549 92.4169 80.1549H126.158C130.922 80.1549 134.779 76.6641 134.779 72.3561V71.6057C134.779 67.3033 130.916 63.8125 126.158 63.8125Z" fill="#FFCE00"/>
<path d="M90.4994 75.3167C90.317 75.3167 90.1757 75.2665 90.0753 75.1662C89.9841 75.0568 89.9385 74.9063 89.9385 74.7148V69.2019C89.9385 68.9921 89.9933 68.8371 90.1027 68.7367C90.2121 68.6273 90.3672 68.5726 90.5678 68.5726H94.1929C94.3662 68.5726 94.4939 68.6091 94.576 68.682C94.658 68.755 94.6991 68.8644 94.6991 69.0103C94.6991 69.1563 94.658 69.2703 94.576 69.3523C94.4939 69.4253 94.3662 69.4618 94.1929 69.4618H91.0466V74.7148C91.0466 75.116 90.8642 75.3167 90.4994 75.3167Z" fill="black"/>
<path d="M97.8122 77.779C97.6298 77.779 97.493 77.7289 97.4018 77.6286C97.3106 77.5374 97.265 77.4006 97.265 77.2182V69.0377C97.265 68.8553 97.3106 68.7185 97.4018 68.6273C97.493 68.527 97.6252 68.4768 97.7985 68.4768C97.9809 68.4768 98.1177 68.527 98.2089 68.6273C98.3092 68.7185 98.3594 68.8553 98.3594 69.0377L98.3457 69.7746C98.5041 69.4154 98.6421 69.2155 99.0707 68.9146C99.5085 68.6045 100.028 68.4495 100.63 68.4495C101.223 68.4495 101.738 68.5908 102.176 68.8735C102.623 69.1471 102.965 69.5438 103.202 70.0637C103.448 70.5744 103.571 71.1854 103.571 71.8968C103.571 72.599 103.448 73.21 103.202 73.7298C102.965 74.2405 102.627 74.6373 102.19 74.92C101.752 75.2027 101.232 75.344 100.63 75.344C100.028 75.344 99.513 75.1936 99.0844 74.8926C98.6558 74.5825 98.5199 74.3929 98.373 74.0287V77.2182C98.373 77.4006 98.3229 77.5374 98.2226 77.6286C98.1222 77.7289 97.9855 77.779 97.8122 77.779ZM100.398 74.4549C100.817 74.4549 101.177 74.3545 101.478 74.1539C101.788 73.9533 102.026 73.6614 102.19 73.2784C102.363 72.8954 102.45 72.4348 102.45 71.8968C102.45 71.0669 102.263 70.433 101.889 69.9953C101.524 69.5575 101.027 69.3387 100.398 69.3387C99.9872 69.3387 99.627 69.439 99.3169 69.6396C99.0069 69.8311 98.7652 70.1184 98.5919 70.5014C98.4278 70.8753 98.3457 71.3404 98.3457 71.8968C98.3457 72.7175 98.5326 73.3514 98.9066 73.7982C99.2805 74.236 99.7775 74.4549 100.398 74.4549Z" fill="black"/>
<path d="M109.505 75.344C108.858 75.344 108.297 75.2027 107.823 74.92C107.348 74.6373 106.979 74.2405 106.715 73.7298C106.459 73.21 106.332 72.599 106.332 71.8968C106.332 71.3678 106.404 70.8936 106.55 70.4741C106.696 70.0454 106.911 69.6806 107.193 69.3797C107.476 69.0787 107.809 68.8507 108.192 68.6957C108.584 68.5315 109.022 68.4495 109.505 68.4495C110.153 68.4495 110.714 68.5908 111.188 68.8735C111.662 69.1563 112.027 69.5575 112.282 70.0774C112.547 70.5881 112.679 71.1945 112.679 71.8968C112.679 72.4257 112.606 72.8999 112.46 73.3194C112.314 73.739 112.1 74.1037 111.817 74.4138C111.534 74.7148 111.197 74.9473 110.805 75.1115C110.422 75.2665 109.989 75.344 109.505 75.344ZM109.505 74.4549C109.916 74.4549 110.276 74.3545 110.586 74.1539C110.896 73.9533 111.133 73.6614 111.297 73.2784C111.471 72.8954 111.557 72.4348 111.557 71.8968C111.557 71.0669 111.37 70.433 110.996 69.9953C110.632 69.5575 110.134 69.3387 109.505 69.3387C109.086 69.3387 108.721 69.439 108.411 69.6396C108.11 69.8311 107.873 70.1184 107.7 70.5014C107.535 70.8753 107.453 71.3404 107.453 71.8968C107.453 72.7175 107.64 73.3514 108.014 73.7982C108.388 74.236 108.885 74.4549 109.505 74.4549Z" fill="black"/>
<path d="M116.419 75.2209C116.237 75.2209 116.095 75.1708 115.995 75.0704C115.895 74.9701 115.844 74.8288 115.844 74.6464V69.0377C115.844 68.8462 115.89 68.7048 115.981 68.6136C116.072 68.5224 116.205 68.4768 116.378 68.4768C116.551 68.4768 116.684 68.5224 116.775 68.6136C116.866 68.7048 116.911 68.8462 116.911 69.0377V74.3317H119.688V69.0377C119.688 68.8462 119.734 68.7048 119.825 68.6136C119.916 68.5224 120.049 68.4768 120.222 68.4768C120.386 68.4768 120.514 68.5224 120.605 68.6136C120.696 68.7048 120.742 68.8462 120.742 69.0377V74.3317H123.519V69.0377C123.519 68.8462 123.564 68.7048 123.656 68.6136C123.756 68.5224 123.888 68.4768 124.052 68.4768C124.226 68.4768 124.358 68.5224 124.449 68.6136C124.54 68.7048 124.586 68.8462 124.586 69.0377V74.6464C124.586 74.8288 124.536 74.9701 124.435 75.0704C124.335 75.1708 124.194 75.2209 124.011 75.2209H116.419Z" fill="black"/>
<path d="M128.701 75.2893C128.519 75.2893 128.382 75.2392 128.291 75.1388C128.199 75.0294 128.154 74.8789 128.154 74.6874V69.0924C128.154 68.9009 128.199 68.755 128.291 68.6547C128.382 68.5543 128.519 68.5042 128.701 68.5042C128.874 68.5042 129.011 68.5543 129.111 68.6547C129.212 68.755 129.262 68.9009 129.262 69.0924V74.6874C129.262 74.8789 129.212 75.0294 129.111 75.1388C129.02 75.2392 128.883 75.2893 128.701 75.2893Z" fill="black"/>
</svg>
